<svg xmlns="http://www.w3.org/2000/svg" viewBox="0 0 128 128"><path fill="#439934" fill-rule="evenodd" d="M90.491 57.282c-.37-4.79-1.896-9.327-4.499-13.373-2.807-4.467-6.063-8.667-9.548-12.633-3.397-3.875-6.886-7.683-10.127-11.713-1.663-2.055-3.11-4.288-4.646-6.424l-.703-.948c-.453-.608-1.162-1.794-1.835-1.794-.669 0-1.329 1.129-1.79 1.744-.503.674-1.003 1.35-1.49 2.037-1.464 2.074-2.872 4.189-4.476 6.169-3.258 4.02-6.768 7.818-10.182 11.686-3.474 3.952-6.726 8.134-9.541 12.586-2.613 4.046-4.138 8.583-4.508 13.373-.17 2.206-.116 4.425.154 6.622.858 6.948 3.747 13.208 8.369 18.286 4.586 5.033 10.37 8.86 16.834 10.89l.548.165c.136 5.127.272 10.254.408 15.381 0 .101.032.204.064.303.003.007.015.013.02.02l.012.005h2.016l.015-.005c.005-.007.018-.013.02-.02.033-.099.064-.202.064-.303.136-5.127.272-10.254.408-15.381l.548-.165c6.464-2.03 12.248-5.857 16.834-10.89 4.622-5.078 7.511-11.338 8.369-18.286.27-2.197.324-4.416.154-6.622z"/><path fill="#45A538" fill-rule="evenodd" d="M67.175 117.024a1.762 1.762 0 01-.062-.308c-.136-5.127-.272-10.254-.408-15.381l-.548-.165c-6.464-2.03-12.248-5.857-16.834-10.89-4.622-5.078-7.511-11.338-8.369-18.286-.27-2.197-.324-4.416-.154-6.622.37-4.79 1.896-9.327 4.508-13.373 2.815-4.452 6.067-8.634 9.541-12.586 3.414-3.868 6.924-7.666 10.182-11.686 1.604-1.98 3.012-4.095 4.476-6.169.487-.687.987-1.363 1.49-2.037.461-.615 1.121-1.744 1.79-1.744V117.028l-.004-.004h-.608z"/></svg>
