<svg xmlns="http://www.w3.org/2000/svg" viewBox="0 0 128 128"><path fill="#FFA000" d="M27.35 80.52l10.68-68.44c.37-2.33 3.5-2.89 4.6-.8L52.87 31.7z"/><path fill="#F57C00" d="M97.72 87.14L87.56 26.76c-.27-1.66-2.37-2.26-3.43-.98L27.35 80.52 59.87 98.75c2.47 1.38 5.49 1.38 7.96 0z"/><path fill="#FFCA28" d="M73.59 42.32L63.45 23.78c-1.04-1.9-3.79-1.9-4.83 0L27.35 80.52z"/><path fill="#fff" fill-opacity=".2" d="M67.83 98.75c-2.47 1.38-5.49 1.38-7.96 0L27.48 80.69l-.13-.17 32.53 18.1c2.47 1.38 5.49 1.38 7.96 0l30.18-16.85-.15.88z"/></svg>
