<svg xmlns="http://www.w3.org/2000/svg" viewBox="0 0 128 128"><path fill="#ffffff" d="M126.67 98.44c-4.56 1.16-7.38.05-9.91-3.75-5.68-8.51-11.95-16.63-18-24.9-.78-1.07-1.59-2.12-2.6-3.45C89.33 76.67 82.7 87.34 75.98 97.94c-2.55 4.02-5.07 5.16-9.87 3.73l23.76-33.18L66.81 35.97c4.22-.8 7.04-.48 9.38 3.32 5.72 9.29 12.03 18.2 18.47 27.73 6.54-9.47 12.76-18.36 18.45-27.6 2.23-3.63 4.86-4.56 9.1-3.2L107.38 55 98.33 68.12c-1.36 1.97-2.8 3.89-4.49 6.23 8.58 11.7 16.94 23.07 25.51 34.72l7.31-10.58c1.53-2.23 2.56-4.91 4.52-6.63 1.62-1.42 4.24-1.92 6.5-2.42z M1.33 61.74c.72-3.61 1.2-7.29 2.2-10.83 6-21.43 30.6-30.34 47.5-17.06C60.93 41.64 63.39 52.62 62.5 65H7.74c-.84 22.21 15.15 35.62 35.53 28.78 7.15-2.4 11.36-8 13.47-15 1.07-3.51 2.84-4.06 6.14-3.06-1.69 8.76-5.52 16.08-13.52 20.66-12 6.86-29.13 4.64-38.14-4.89C5.26 85.89 3.21 78.92 2.02 71.39c-.19-1.2-.5-2.38-.69-3.57V61.74zM7.87 60.25h49.46c-.41-16.46-11.21-28.79-25.22-28.8-15.34-.01-23.58 11.97-24.24 28.8z"/></svg>
