<svg xmlns="http://www.w3.org/2000/svg" viewBox="0 0 128 128"><path fill="#ffffff" d="M55.96 0h16.08v47.17L64 58.89l-8.04-11.72V0z"/><path fill="#00F2E6" d="M55.96 128h16.08V80.83L64 69.11l-8.04 11.72V128z"/><path fill="#00B9F1" d="M72.04 80.83l8.04-11.72L128 47.17v18.55L87.74 86.19l-15.7-5.36z"/><path fill="#D63AFF" d="M55.96 47.17l-8.04 11.72L0 80.83V62.28l40.26-20.47 15.7 5.36z"/><path fill="#FB015B" d="M40.26 20.47L0 62.28V43.73l40.26-20.47 7.66 8.93-7.66-11.72z"/><path fill="#D63AFF" d="M87.74 107.53L128 65.72v18.55l-40.26 20.47-7.66-8.93 7.66 11.72z"/></svg>
