<svg xmlns="http://www.w3.org/2000/svg" viewBox="0 0 128 128"><path fill="#6181B6" d="M64 33.039C30.26 33.039 2.906 46.901 2.906 64s27.354 30.961 61.094 30.961S125.094 81.099 125.094 64 97.74 33.039 64 33.039zM48.103 70.032c-1.458 1.364-3.077 1.927-4.86 2.507-1.783.581-4.052.461-6.811.461h-6.253l-1.733 10h-7l6.952-34h14.18c4.546 0 7.693 1.138 9.489 3.414 1.735 2.197 2.234 5.149 1.498 8.856-.627 3.127-2.003 5.763-4.461 7.762zM68.693 70.032c-1.458 1.364-3.077 1.927-4.86 2.507-1.783.581-4.052.461-6.811.461h-6.253l-1.733 10h-7l6.952-34h14.18c4.546 0 7.693 1.138 9.489 3.414 1.735 2.197 2.234 5.149 1.498 8.856-.627 3.127-2.003 5.763-4.461 7.762zM103.615 49.492c-.897-.363-1.83-.575-3.055-.575H95l-3.39 16h5.71c2.194 0 3.95-.564 5.267-1.693 1.318-1.129 2.22-3.004 2.708-5.627.494-2.636.196-4.402-.89-5.296-1.088-.894-2.75-2.809-1.79-2.809z"/></svg>
